# Created by Kenney (www.kenney.nl)

mtllib wall_full.mtl

g mergedBlocks

v 0.5 0 0.5
v 0.5 0 -0.5
v -0.5 0 0.5
v -0.5 0 -0.5
v 0.5 0.2 -0.5
v 0.5 0.2 0.5
v -0.5 0.2 0.5
v -0.5 0.2 -0.5
v -0.5 1 -0.5
v 0.5 1 -0.5
v 0.5 1 0.5
v -0.5 1 0.5

vn 0 -1 0
vn 1 0 0
vn 0 0 1
vn -1 0 0
vn 0 0 -1
vn 0 1 0

vt 0.0625 0.0625
vt 0.1875 0.0625
vt 0 0

usemtl wall_full

f 3/1/1 2/1/1 1/1/1
f 2/1/1 3/1/1 4/1/1
f 6/1/2 2/1/2 5/1/2
f 2/1/2 6/1/2 1/1/2
f 6/1/3 3/1/3 1/1/3
f 3/1/3 6/1/3 7/1/3
f 3/1/4 8/1/4 4/1/4
f 8/1/4 3/1/4 7/1/4
f 8/1/5 2/1/5 4/1/5
f 2/1/5 8/1/5 5/1/5

usemtl wall_full

f 9/2/5 5/2/5 8/2/5
f 5/2/5 9/2/5 10/2/5
f 9/2/6 11/2/6 10/2/6
f 11/2/6 9/2/6 12/2/6
f 11/2/2 5/2/2 10/2/2
f 5/2/2 11/2/2 6/2/2
f 11/2/3 7/2/3 6/2/3
f 7/2/3 11/2/3 12/2/3
f 7/2/4 9/2/4 8/2/4
f 9/2/4 7/2/4 12/2/4

